# xmcd
#
# Track frame offsets:
# 150
# 9164
# 20625
# 29782
# 41719
# 54265
# 64695
# 75165
# 85309
# 95820
# 105833
# 116359
# 124734
# 134169
# 146698
# 159809
# 171417
# 180545
# 189863
# 200671
# 215151
# 230103
# 242953
# 258434
# 270342
# 291820
# 308563
# 321944
# 334890
# 344139
#
# Disc length: 4795 seconds
#
#
# Revision: 3
# Processed by: cddbd v1.5.2PL0 Copyright (c) Steve Scherf et al.
# Submitted via: FreeRIP 2.951 
#
DISCID=b912b91e
DTITLE=Elvis Presley - History - CD2
DYEAR=2005
DGENRE=Rock and Roll
TTITLE0=Elvis Presley - That's All Right
TTITLE1=Elvis Presley - I Forgot To Remember To Forget
TTITLE2=Elvis Presley - Blue Suede Shoes
TTITLE3=Elvis Presley - I Want You, I Need You, I Love You
TTITLE4=Elvis Presley - Love Me
TTITLE5=Elvis Presley - Mean Woman Blues
TTITLE6=Elvis Presley - Loving You
TTITLE7=Elvis Presley - Treat Me Nice
TTITLE8=Elvis Presley - Wear My Ring Around Your Neck
TTITLE9=Elvis Presley - King Creole
TTITLE10=Elvis Presley - Trouble
TTITLE11=Elvis Presley - I Got Stung
TTITLE12=Elvis Presley - I Need Your Love Tonight
TTITLE13=Elvis Presley - A Mess Of Blues
TTITLE14=Elvis Presley - I Feel So Bad
TTITLE15=Elvis Presley - Little Sister
TTITLE16=Elvis Presley - Rock-A-Hula Baby
TTITLE17=Elvis Presley - Bossa Nova Baby
TTITLE18=Elvis Presley - Viva Las Vegas
TTITLE19=Elvis Presley - If I Can Dream
TTITLE20=Elvis Presley - Memories
TTITLE21=Elvis Presley - Don't Cry Daddy
TTITLE22=Elvis Presley - Kentucky Rain
TTITLE23=Elvis Presley - You Don't Have To Say You Love Me
TTITLE24=Elvis Presley - An American Trilogy
TTITLE25=Elvis Presley - Always On My Mind
TTITLE26=Elvis Presley - Promised Land
TTITLE27=Elvis Presley - Moody Blue
TTITLE28=Elvis Presley - I'm A Roustabout
TTITLE29=Elvis Presley - Rubberneckin' (2003 Remix)
EXTD=
EXTT0=
EXTT1=
EXTT2=
EXTT3=
EXTT4=
EXTT5=
EXTT6=
EXTT7=
EXTT8=
EXTT9=
EXTT10=
EXTT11=
EXTT12=
EXTT13=
EXTT14=
EXTT15=
EXTT16=
EXTT17=
EXTT18=
EXTT19=
EXTT20=
EXTT21=
EXTT22=
EXTT23=
EXTT24=
EXTT25=
EXTT26=
EXTT27=
EXTT28=
EXTT29=
PLAYORDER=
